<?xml version="1.0" standalone="no"?>
<!DOCTYPE svg PUBLIC "-//W3C//DTD SVG 20010904//EN"
 "http://www.w3.org/TR/2001/REC-SVG-20010904/DTD/svg10.dtd">
<svg version="1.0" xmlns="http://www.w3.org/2000/svg"
 width="260.000000pt" height="260.000000pt" viewBox="0 0 260.000000 260.000000"
 preserveAspectRatio="xMidYMid meet">
<metadata>
Created by potrace 1.11, written by Peter Selinger 2001-2013
</metadata>
<g transform="translate(0.000000,260.000000) scale(0.100000,-0.100000)"
fill="#000000" stroke="none">
<path d="M740 1095 l0 -1095 80 0 80 0 0 1095 0 1095 -80 0 -80 0 0 -1095z"/>
<path d="M2180 975 l0 -975 80 0 80 0 0 975 0 975 -80 0 -80 0 0 -975z"/>
<path d="M1220 935 l0 -935 80 0 80 0 0 935 0 935 -80 0 -80 0 0 -935z"/>
<path d="M1460 735 l0 -735 80 0 80 0 0 735 0 735 -80 0 -80 0 0 -735z"/>
<path d="M1940 735 l0 -735 80 0 80 0 0 735 0 735 -80 0 -80 0 0 -735z"/>
<path d="M260 615 l0 -615 80 0 80 0 0 615 0 615 -80 0 -80 0 0 -615z"/>
<path d="M2420 575 l0 -575 80 0 80 0 0 575 0 575 -80 0 -80 0 0 -575z"/>
<path d="M980 535 l0 -535 80 0 80 0 0 535 0 535 -80 0 -80 0 0 -535z"/>
<path d="M1700 415 l0 -415 80 0 80 0 0 415 0 415 -80 0 -80 0 0 -415z"/>
<path d="M20 175 l0 -175 80 0 80 0 0 175 0 175 -80 0 -80 0 0 -175z"/>
<path d="M500 135 l0 -135 80 0 80 0 0 135 0 135 -80 0 -80 0 0 -135z"/>
</g>
</svg>
